<svg width="139" height="135" viewBox="0 0 139 135" fill="none" xmlns="http://www.w3.org/2000/svg">
<g id="Frame 1">
<path id="Ellipse 1" d="M134 68C134 105.009 106.009 133 69 133C31.9912 133 4 105.009 4 68C4 30.9912 31.9912 3 69 3C106.009 3 134 30.9912 134 68Z" fill="#2D2926"/>
<path id="Happy Tails" d="M46.6245 47.6H48.2305V63H46.6245V47.6ZM36.9885 63H35.3605V47.6H36.9885V63ZM46.7785 55.894H36.8125V54.464H46.7785V55.894ZM60.165 63V60.448L60.099 60.03V55.762C60.099 54.7793 59.8204 54.024 59.263 53.496C58.7204 52.968 57.9064 52.704 56.821 52.704C56.073 52.704 55.3617 52.8287 54.687 53.078C54.0124 53.3273 53.4404 53.6573 52.971 54.068L52.267 52.902C52.8537 52.4033 53.5577 52.022 54.379 51.758C55.2004 51.4793 56.0657 51.34 56.975 51.34C58.471 51.34 59.6224 51.714 60.429 52.462C61.2504 53.1953 61.661 54.3173 61.661 55.828V63H60.165ZM56.183 63.11C55.3177 63.11 54.5624 62.9707 53.917 62.692C53.2864 62.3987 52.8024 62.0027 52.465 61.504C52.1277 60.9907 51.959 60.404 51.959 59.744C51.959 59.1427 52.0984 58.6 52.377 58.116C52.6704 57.6173 53.1397 57.2213 53.785 56.928C54.445 56.62 55.325 56.466 56.425 56.466H60.407V57.632H56.469C55.3544 57.632 54.577 57.83 54.137 58.226C53.7117 58.622 53.499 59.1133 53.499 59.7C53.499 60.36 53.7557 60.888 54.269 61.284C54.7824 61.68 55.501 61.878 56.425 61.878C57.305 61.878 58.0604 61.68 58.691 61.284C59.3364 60.8733 59.8057 60.2867 60.099 59.524L60.451 60.602C60.1577 61.3647 59.6444 61.9733 58.911 62.428C58.1924 62.8827 57.283 63.11 56.183 63.11ZM71.8656 63.11C70.8683 63.11 69.9663 62.8827 69.1596 62.428C68.3529 61.9587 67.7076 61.2913 67.2236 60.426C66.7543 59.546 66.5196 58.4753 66.5196 57.214C66.5196 55.9527 66.7543 54.8893 67.2236 54.024C67.6929 53.144 68.3309 52.4767 69.1376 52.022C69.9443 51.5673 70.8536 51.34 71.8656 51.34C72.9656 51.34 73.9483 51.5893 74.8136 52.088C75.6936 52.572 76.3829 53.2613 76.8816 54.156C77.3803 55.036 77.6296 56.0553 77.6296 57.214C77.6296 58.3873 77.3803 59.414 76.8816 60.294C76.3829 61.174 75.6936 61.8633 74.8136 62.362C73.9483 62.8607 72.9656 63.11 71.8656 63.11ZM65.9036 67.268V51.45H67.3996V54.926L67.2456 57.236L67.4656 59.568V67.268H65.9036ZM71.7556 61.724C72.5769 61.724 73.3103 61.5407 73.9556 61.174C74.6009 60.7927 75.1143 60.2647 75.4956 59.59C75.8769 58.9007 76.0676 58.1087 76.0676 57.214C76.0676 56.3193 75.8769 55.5347 75.4956 54.86C75.1143 54.1853 74.6009 53.6573 73.9556 53.276C73.3103 52.8947 72.5769 52.704 71.7556 52.704C70.9343 52.704 70.1936 52.8947 69.5336 53.276C68.8883 53.6573 68.3749 54.1853 67.9936 54.86C67.6269 55.5347 67.4436 56.3193 67.4436 57.214C67.4436 58.1087 67.6269 58.9007 67.9936 59.59C68.3749 60.2647 68.8883 60.7927 69.5336 61.174C70.1936 61.5407 70.9343 61.724 71.7556 61.724ZM86.7757 63.11C85.7784 63.11 84.8764 62.8827 84.0697 62.428C83.2631 61.9587 82.6177 61.2913 82.1337 60.426C81.6644 59.546 81.4297 58.4753 81.4297 57.214C81.4297 55.9527 81.6644 54.8893 82.1337 54.024C82.6031 53.144 83.2411 52.4767 84.0477 52.022C84.8544 51.5673 85.7637 51.34 86.7757 51.34C87.8757 51.34 88.8584 51.5893 89.7237 52.088C90.6037 52.572 91.2931 53.2613 91.7917 54.156C92.2904 55.036 92.5397 56.0553 92.5397 57.214C92.5397 58.3873 92.2904 59.414 91.7917 60.294C91.2931 61.174 90.6037 61.8633 89.7237 62.362C88.8584 62.8607 87.8757 63.11 86.7757 63.11ZM80.8137 67.268V51.45H82.3097V54.926L82.1557 57.236L82.3757 59.568V67.268H80.8137ZM86.6657 61.724C87.4871 61.724 88.2204 61.5407 88.8657 61.174C89.5111 60.7927 90.0244 60.2647 90.4057 59.59C90.7871 58.9007 90.9777 58.1087 90.9777 57.214C90.9777 56.3193 90.7871 55.5347 90.4057 54.86C90.0244 54.1853 89.5111 53.6573 88.8657 53.276C88.2204 52.8947 87.4871 52.704 86.6657 52.704C85.8444 52.704 85.1037 52.8947 84.4437 53.276C83.7984 53.6573 83.2851 54.1853 82.9037 54.86C82.5371 55.5347 82.3537 56.3193 82.3537 57.214C82.3537 58.1087 82.5371 58.9007 82.9037 59.59C83.2851 60.2647 83.7984 60.7927 84.4437 61.174C85.1037 61.5407 85.8444 61.724 86.6657 61.724ZM95.4896 67.378C94.947 67.378 94.4263 67.29 93.9276 67.114C93.4436 66.938 93.0256 66.674 92.6736 66.322L93.3996 65.156C93.693 65.4347 94.0083 65.6473 94.3456 65.794C94.6976 65.9553 95.0863 66.036 95.5116 66.036C96.025 66.036 96.465 65.8893 96.8316 65.596C97.213 65.3173 97.5723 64.8187 97.9096 64.1L98.6576 62.406L98.8336 62.164L103.586 51.45H105.126L99.3396 64.386C99.017 65.134 98.6576 65.728 98.2616 66.168C97.8803 66.608 97.4623 66.916 97.0076 67.092C96.553 67.2827 96.047 67.378 95.4896 67.378ZM98.5696 63.33L93.2456 51.45H94.8736L99.5816 62.054L98.5696 63.33ZM50.7383 93V79.008H45.3263V77.6H57.7783V79.008H52.3663V93H50.7383ZM66.6426 93V90.448L66.5766 90.03V85.762C66.5766 84.7793 66.2979 84.024 65.7406 83.496C65.1979 82.968 64.3839 82.704 63.2986 82.704C62.5506 82.704 61.8392 82.8287 61.1646 83.078C60.4899 83.3273 59.9179 83.6573 59.4486 84.068L58.7446 82.902C59.3312 82.4033 60.0352 82.022 60.8566 81.758C61.6779 81.4793 62.5432 81.34 63.4526 81.34C64.9486 81.34 66.0999 81.714 66.9066 82.462C67.7279 83.1953 68.1386 84.3173 68.1386 85.828V93H66.6426ZM62.6606 93.11C61.7952 93.11 61.0399 92.9707 60.3946 92.692C59.7639 92.3987 59.2799 92.0027 58.9426 91.504C58.6052 90.9907 58.4366 90.404 58.4366 89.744C58.4366 89.1427 58.5759 88.6 58.8546 88.116C59.1479 87.6173 59.6172 87.2213 60.2626 86.928C60.9226 86.62 61.8026 86.466 62.9026 86.466H66.8846V87.632H62.9466C61.8319 87.632 61.0546 87.83 60.6146 88.226C60.1892 88.622 59.9766 89.1133 59.9766 89.7C59.9766 90.36 60.2332 90.888 60.7466 91.284C61.2599 91.68 61.9786 91.878 62.9026 91.878C63.7826 91.878 64.5379 91.68 65.1686 91.284C65.8139 90.8733 66.2832 90.2867 66.5766 89.524L66.9286 90.602C66.6352 91.3647 66.1219 91.9733 65.3886 92.428C64.6699 92.8827 63.7606 93.11 62.6606 93.11ZM72.3811 93V81.45H73.9431V93H72.3811ZM73.1731 78.898C72.8505 78.898 72.5791 78.788 72.3591 78.568C72.1391 78.348 72.0291 78.084 72.0291 77.776C72.0291 77.468 72.1391 77.2113 72.3591 77.006C72.5791 76.786 72.8505 76.676 73.1731 76.676C73.4958 76.676 73.7671 76.7787 73.9871 76.984C74.2071 77.1893 74.3171 77.446 74.3171 77.754C74.3171 78.0767 74.2071 78.348 73.9871 78.568C73.7818 78.788 73.5105 78.898 73.1731 78.898ZM78.2893 93V76.676H79.8513V93H78.2893ZM87.2995 93.11C86.3462 93.11 85.4442 92.978 84.5935 92.714C83.7429 92.4353 83.0755 92.0907 82.5915 91.68L83.2955 90.448C83.7649 90.8 84.3662 91.108 85.0995 91.372C85.8329 91.6213 86.6029 91.746 87.4095 91.746C88.5095 91.746 89.3015 91.5773 89.7855 91.24C90.2695 90.888 90.5115 90.426 90.5115 89.854C90.5115 89.4287 90.3722 89.0987 90.0935 88.864C89.8295 88.6147 89.4775 88.4313 89.0375 88.314C88.5975 88.182 88.1062 88.072 87.5635 87.984C87.0209 87.896 86.4782 87.7933 85.9355 87.676C85.4075 87.5587 84.9235 87.39 84.4835 87.17C84.0435 86.9353 83.6842 86.62 83.4055 86.224C83.1415 85.828 83.0095 85.3 83.0095 84.64C83.0095 84.0093 83.1855 83.4447 83.5375 82.946C83.8895 82.4473 84.4029 82.0587 85.0775 81.78C85.7669 81.4867 86.6029 81.34 87.5855 81.34C88.3335 81.34 89.0815 81.4427 89.8295 81.648C90.5775 81.8387 91.1935 82.0953 91.6775 82.418L90.9955 83.672C90.4822 83.32 89.9322 83.0707 89.3455 82.924C88.7589 82.7627 88.1722 82.682 87.5855 82.682C86.5442 82.682 85.7742 82.8653 85.2755 83.232C84.7915 83.584 84.5495 84.0387 84.5495 84.596C84.5495 85.036 84.6815 85.3807 84.9455 85.63C85.2242 85.8793 85.5835 86.0773 86.0235 86.224C86.4782 86.356 86.9695 86.466 87.4975 86.554C88.0402 86.642 88.5755 86.752 89.1035 86.884C89.6462 87.0013 90.1375 87.17 90.5775 87.39C91.0322 87.5953 91.3915 87.896 91.6555 88.292C91.9342 88.6733 92.0735 89.1793 92.0735 89.81C92.0735 90.4847 91.8829 91.0713 91.5015 91.57C91.1349 92.054 90.5922 92.4353 89.8735 92.714C89.1695 92.978 88.3115 93.11 87.2995 93.11Z" fill="white"/>
</g>
</svg>
